<svg width="414" height="415" xmlns="http://www.w3.org/2000/svg">
 <!-- Created with Method Draw - http://github.com/duopixel/Method-Draw/ -->

 <g>
  <title>background</title>
  <rect fill="#ffffff" id="canvas_background" height="417" width="416" y="-1" x="-1"/>
 </g>
 <g>
  <title>Layer 1</title>
  <metadata>image/svg+xmlOpenclipartSun behind cloud2010-06-08T07:02:45Sun behind a cloud.https://openclipart.org/detail/64987/sun-behind-cloud-by-laobclaobccloudsummersummer2010sunweather</metadata>
  <g id="svg_15">
   <g transform="matrix(1.40666, 0, 0, 1.35509, -403.148, -343.886)" id="svg_10">
    <g id="svg_11">
     <path fill="#ffff64" d="m504.56964,327.44908c0,17.95018 -14.55029,32.50147 -32.49947,32.50147s-32.49947,-14.55129 -32.49947,-32.50147s14.55029,-32.50147 32.49947,-32.50147s32.49947,14.55129 32.49947,32.50147z" id="svg_13"/>
     <path stroke="#ffffff" stroke-width="3" fill="#ebebeb" d="m390.19962,394.78065l229.3,0c-0.001,-6.3636 -0.54495,-12.599 -1.9088,-18.853c-1.1144,-5.1098 -4.12,-9.0707 -7.3089,-12.841c-10.93,-12.921 -26.037,-14.543 -41.916,-13.111c2.8031,-4.191 0.17442,-26.504 -1.5432,-32.034c-6.2671,-20.176 -27.218,-28.089 -46.318,-25.313c-13.863,2.0148 -24.221,14.364 -28.508,27.217c-2.1934,6.5762 -3.5757,13.501 -2.9325,20.512c1.1032,5.2471 -3.2826,0.20429 -5.5202,-0.69035c-7.2245,-2.8886 -14.701,-5.7344 -22.756,-5.2163c-18.587,1.1954 -28.277,16.688 -30.186,33.813c-13.423,-1.9851 -26.175,0.10775 -34.425,11.633c-3.0879,4.314 -5.2904,9.5153 -5.9815,14.884l0.0041,-0.00035z" id="svg_12"/>
    </g>
   </g>
  </g>

  <metadata id="svg_24">image/svg+xmlCloudJosh "Cheeseness" BushOriginally created for the official shirt for the 2014 Open Source Developers' Conference held at Griffith University.cloud2014-10-22</metadata>
  <g transform="rotate(-0.742511, 109, 201.502)" id="svg_26">
   <g transform="matrix(0.772053, 0, 0, 0.869802, -6.36113, -114.721)" id="svg_22">
    <path clip-rule="nonzero" fill="#e5e5e5" fill-rule="nonzero" stroke-width="1px" d="m124.71169,296.32814c-18.8823,0 -37.6499,7.7751 -51.0017,21.127c-8.4122,8.4121 -14.6043,18.9734 -18.0383,30.3583c-8.2539,1.5581 -16.0492,5.5866 -21.9931,11.5304c-7.7473,7.7473 -12.2573,18.6331 -12.2573,29.5895c0,10.9565 4.51,21.8458 12.2573,29.5931c7.7474,7.7473 18.6367,12.2573 29.5931,12.2573l187.4365,0c6.9935,0 13.9453,-2.8775 18.8904,-7.8224c4.9452,-4.9451 7.8227,-11.8971 7.8227,-18.8906c0,-6.9935 -2.8775,-13.9417 -7.8227,-18.8868c-4.9147,-4.9149 -11.8119,-7.784 -18.7617,-7.8193c-1.3562,-12.6709 -7.0967,-24.867 -16.1148,-33.8851c-10.3847,-10.3847 -24.9798,-16.4314 -39.666,-16.4314c-3.5656,0 -7.1233,0.3656 -10.6192,1.0539c-2.5582,-3.8175 -5.4715,-7.3951 -8.7235,-10.6469c-13.3518,-13.3519 -32.1193,-21.127 -51.0017,-21.127z" id="svg_23"/>
   </g>
  </g>
  <g transform="rotate(-0.742511, 383.727, 285.502)" id="svg_29">
   <g transform="matrix(0.772053, 0, 0, 0.869802, -6.36113, -114.721)" id="svg_28">
    <path clip-rule="nonzero" fill="#e5e5e5" fill-rule="nonzero" stroke-width="1px" d="m480.55069,392.90185c-18.8823,0 -37.6499,7.7751 -51.0017,21.127c-8.4122,8.4121 -14.6043,18.9734 -18.0383,30.3583c-8.2539,1.5581 -16.0492,5.5866 -21.9931,11.5304c-7.7473,7.7473 -12.2573,18.6331 -12.2573,29.5895c0,10.9565 4.51,21.8458 12.2573,29.5931c7.7474,7.7473 18.6367,12.2573 29.5931,12.2573l187.4365,0c6.9935,0 13.9453,-2.8775 18.8904,-7.8224c4.9452,-4.9451 7.8227,-11.8971 7.8227,-18.8906c0,-6.9935 -2.8775,-13.9417 -7.8227,-18.8868c-4.9147,-4.9149 -11.8119,-7.784 -18.7617,-7.8193c-1.3562,-12.6709 -7.0967,-24.867 -16.1148,-33.8851c-10.3847,-10.3847 -24.9798,-16.4314 -39.666,-16.4314c-3.5656,0 -7.1233,0.3656 -10.6192,1.0539c-2.5582,-3.8175 -5.4715,-7.3951 -8.7235,-10.6469c-13.3518,-13.3519 -32.1193,-21.127 -51.0017,-21.127z" id="svg_27"/>
   </g>
  </g>
 </g>
</svg>